<svg id="visual" viewBox="0 0 900 600" width="900" height="600" xmlns="http://www.w3.org/2000/svg" xmlns:xlink="http://www.w3.org/1999/xlink" version="1.1"><rect x="0" y="0" width="900" height="600" fill="#001220"></rect><defs><linearGradient id="grad1_0" x1="33.3%" y1="0%" x2="100%" y2="100%"><stop offset="20%" stop-color="#fbae3c" stop-opacity="1"></stop><stop offset="80%" stop-color="#fbae3c" stop-opacity="1"></stop></linearGradient></defs><defs><linearGradient id="grad1_1" x1="33.3%" y1="0%" x2="100%" y2="100%"><stop offset="20%" stop-color="#fbae3c" stop-opacity="1"></stop><stop offset="80%" stop-color="#001220" stop-opacity="1"></stop></linearGradient></defs><defs><linearGradient id="grad2_0" x1="0%" y1="0%" x2="66.7%" y2="100%"><stop offset="20%" stop-color="#fbae3c" stop-opacity="1"></stop><stop offset="80%" stop-color="#fbae3c" stop-opacity="1"></stop></linearGradient></defs><defs><linearGradient id="grad2_1" x1="0%" y1="0%" x2="66.7%" y2="100%"><stop offset="20%" stop-color="#001220" stop-opacity="1"></stop><stop offset="80%" stop-color="#fbae3c" stop-opacity="1"></stop></linearGradient></defs><g transform="translate(900, 0)"><path d="M0 324.5C-25.2 311.6 -50.4 298.8 -78.9 294.6C-107.5 290.5 -139.5 295 -162.2 281C-185 267 -198.4 234.5 -205.1 205.1C-211.7 175.7 -211.4 149.4 -224.3 129.5C-237.2 109.6 -263.2 96.1 -282.1 75.6C-300.9 55.1 -312.7 27.5 -324.5 0L0 0Z" fill="#96446e"></path><path d="M0 162.2C-12.6 155.8 -25.2 149.4 -39.5 147.3C-53.8 145.2 -69.8 147.5 -81.1 140.5C-92.5 133.5 -99.2 117.2 -102.5 102.5C-105.8 87.8 -105.7 74.7 -112.2 64.8C-118.6 54.8 -131.6 48 -141 37.8C-150.5 27.5 -156.4 13.8 -162.2 0L0 0Z" fill="#fbae3c"></path></g><g transform="translate(0, 600)"><path d="M0 -324.5C19.9 -291.2 39.7 -258 68.6 -256C97.4 -254 135.3 -283.3 162.2 -281C189.2 -278.8 205.3 -244.9 215 -215C224.6 -185 227.9 -158.8 236.4 -136.5C245 -114.2 258.8 -95.6 274.3 -73.5C289.9 -51.4 307.2 -25.7 324.5 0L0 0Z" fill="#96446e"></path><path d="M0 -162.2C9.9 -145.6 19.9 -129 34.3 -128C48.7 -127 67.6 -141.6 81.1 -140.5C94.6 -139.4 102.6 -122.5 107.5 -107.5C112.3 -92.5 113.9 -79.4 118.2 -68.3C122.5 -57.1 129.4 -47.8 137.2 -36.8C144.9 -25.7 153.6 -12.8 162.2 0L0 0Z" fill="#fbae3c"></path></g></svg>